<?xml version="1.0"?>
<svg xmlns="http://www.w3.org/2000/svg" xmlns:xlink="http://www.w3.org/1999/xlink" version="1.1" id="Layer_1" x="0px" y="0px" width="100%" viewBox="0 0 1080 1080" enable-background="new 0 0 1080 1080" xml:space="preserve" style="background-color:transparent;">
<path fill="none" opacity="1.000000" stroke="none" d=" M622.000000,1081.000000   C414.690521,1081.000000 207.881073,1081.000000 1.035801,1081.000000   C1.035801,721.065430 1.035801,361.130829 1.035801,1.098114   C360.893036,1.098114 720.786133,1.098114 1080.839600,1.098114   C1080.839600,360.999939 1080.839600,720.999939 1080.839600,1081.000000   C928.130371,1081.000000 775.315186,1081.000000 622.000000,1081.000000  M527.719055,448.308105   C527.749878,447.548523 527.575134,446.210052 527.842163,446.115204   C532.779297,444.361542 537.676086,442.322693 542.771423,441.229614   C549.129395,439.865662 555.830444,439.938873 562.076599,438.253967   C571.800903,435.630737 581.136475,431.550781 590.876709,429.006409   C601.789612,426.155701 613.354004,425.437683 623.936096,421.773468   C637.191956,417.183411 649.985779,410.945648 650.368469,393.454376   C650.446106,389.905121 649.712402,388.283173 646.803101,386.314636   C640.684998,382.174744 634.990845,377.390533 629.267761,372.694000   C627.242249,371.031769 622.908447,371.362518 621.839050,372.692657   C617.749756,372.407349 614.420959,371.712463 611.199463,372.047882   C604.757690,372.718567 598.407104,374.460724 591.962158,374.871826   C555.482605,377.198700 520.853455,388.484558 485.591980,396.658508   C477.409576,398.555237 470.044769,402.758636 464.506714,409.335083   C463.184021,410.905731 462.235077,413.499268 462.423370,415.499084   C462.951477,421.108246 463.664734,426.797119 465.223206,432.189178   C467.510132,440.101379 469.570984,448.392731 473.710541,455.341614   C476.325104,459.730499 476.928528,462.606873 474.899170,466.849304   C469.515442,478.104034 464.417023,489.495728 458.988007,500.727997   C457.259674,504.303833 454.849335,507.550018 452.751160,510.947113   C452.160400,511.903595 451.418701,512.799561 451.006287,513.827698   C449.480865,517.630554 448.045654,521.470215 446.612213,525.309387   C445.400635,528.554321 443.134399,531.853333 443.238159,535.067017   C443.804077,552.591919 443.187653,570.287720 453.078003,586.259583   C456.803070,592.275146 461.239227,596.636353 467.330200,599.603149   C477.921539,604.762024 489.427185,606.400391 500.885040,605.820251   C523.208069,604.689941 545.559021,603.180786 567.738403,600.502930   C580.503967,598.961609 593.286194,595.783203 605.458679,591.592529   C618.257446,587.186157 626.559143,577.030884 631.652100,565.994629   C629.975159,562.591431 628.814758,560.197876 627.619080,557.822083   C626.677612,555.951477 625.825378,552.590088 624.705627,552.491943   C617.921814,551.897583 615.876099,546.023438 611.857910,542.292542   C609.573303,540.171204 605.964478,537.785461 603.265808,538.112122   C594.553406,539.166626 585.967773,541.339539 577.372192,543.255615   C573.666748,544.081604 570.116333,545.895325 566.392212,546.293030   C553.506775,547.669312 540.585815,548.756470 527.659302,549.690308   C517.112366,550.452209 506.527588,551.068176 495.630310,548.616577   C499.984344,535.949768 506.541260,524.997925 513.760254,514.427673   C514.375732,513.526428 516.591309,513.369080 518.034790,513.441040   C525.257935,513.801147 532.465515,514.544067 539.690552,514.767029   C544.134033,514.904175 548.718079,513.590271 553.028870,514.266785   C561.514160,515.598572 569.914917,515.374207 577.448608,511.695770   C588.159424,506.466156 598.213257,499.906342 608.695068,494.184875   C612.972046,491.850342 614.553467,488.679321 613.983521,483.997284   C613.442383,479.552612 611.564697,476.673920 606.729309,476.155792   C605.345215,476.007507 603.834839,475.130341 602.781372,474.155945   C599.360962,470.992340 595.991516,467.749817 592.872620,464.293793   C591.185364,462.424042 590.047485,460.058472 588.052124,456.974274   C569.353027,457.843719 549.329163,458.774750 528.947266,459.722443   C528.508179,455.359589 528.193726,452.235016 527.719055,448.308105  z"/>
<path fill="#BE62D9" opacity="1.000000" stroke="none" d=" M527.799194,448.709290   C528.193726,452.235016 528.508179,455.359589 528.947266,459.722443   C549.329163,458.774750 569.353027,457.843719 588.052124,456.974274   C590.047485,460.058472 591.185364,462.424042 592.872620,464.293793   C595.991516,467.749817 599.360962,470.992340 602.781372,474.155945   C603.834839,475.130341 605.345215,476.007507 606.729309,476.155792   C611.564697,476.673920 613.442383,479.552612 613.983521,483.997284   C614.553467,488.679321 612.972046,491.850342 608.695068,494.184875   C598.213257,499.906342 588.159424,506.466156 577.448608,511.695770   C569.914917,515.374207 561.514160,515.598572 553.028870,514.266785   C548.718079,513.590271 544.134033,514.904175 539.690552,514.767029   C532.465515,514.544067 525.257935,513.801147 518.034790,513.441040   C516.591309,513.369080 514.375732,513.526428 513.760254,514.427673   C506.541260,524.997925 499.984344,535.949768 495.630310,548.616577   C506.527588,551.068176 517.112366,550.452209 527.659302,549.690308   C540.585815,548.756470 553.506775,547.669312 566.392212,546.293030   C570.116333,545.895325 573.666748,544.081604 577.372192,543.255615   C585.967773,541.339539 594.553406,539.166626 603.265808,538.112122   C605.964478,537.785461 609.573303,540.171204 611.857910,542.292542   C615.876099,546.023438 617.921814,551.897583 624.705627,552.491943   C625.825378,552.590088 626.677612,555.951477 627.619080,557.822083   C628.814758,560.197876 629.975159,562.591431 631.652100,565.994629   C626.559143,577.030884 618.257446,587.186157 605.458679,591.592529   C593.286194,595.783203 580.503967,598.961609 567.738403,600.502930   C545.559021,603.180786 523.208069,604.689941 500.885040,605.820251   C489.427185,606.400391 477.921539,604.762024 467.330200,599.603149   C461.239227,596.636353 456.803070,592.275146 453.078003,586.259583   C443.187653,570.287720 443.804077,552.591919 443.238159,535.067017   C443.134399,531.853333 445.400635,528.554321 446.612213,525.309387   C448.045654,521.470215 449.480865,517.630554 451.006287,513.827698   C451.418701,512.799561 452.160400,511.903595 452.751160,510.947113   C454.849335,507.550018 457.259674,504.303833 458.988007,500.727997   C464.417023,489.495728 469.515442,478.104034 474.899170,466.849304   C476.928528,462.606873 476.325104,459.730499 473.710541,455.341614   C469.570984,448.392731 467.510132,440.101379 465.223206,432.189178   C463.664734,426.797119 462.951477,421.108246 462.423370,415.499084   C462.235077,413.499268 463.184021,410.905731 464.506714,409.335083   C470.044769,402.758636 477.409576,398.555237 485.591980,396.658508   C520.853455,388.484558 555.482605,377.198700 591.962158,374.871826   C598.407104,374.460724 604.757690,372.718567 611.199463,372.047882   C614.420959,371.712463 617.749756,372.407349 621.839050,372.692657   C622.908447,371.362518 627.242249,371.031769 629.267761,372.694000   C634.990845,377.390533 640.684998,382.174744 646.803101,386.314636   C649.712402,388.283173 650.446106,389.905121 650.368469,393.454376   C649.985779,410.945648 637.191956,417.183411 623.936096,421.773468   C613.354004,425.437683 601.789612,426.155701 590.876709,429.006409   C581.136475,431.550781 571.800903,435.630737 562.076599,438.253967   C555.830444,439.938873 549.129395,439.865662 542.771423,441.229614   C537.676086,442.322693 532.779297,444.361542 527.842163,446.115204   C527.575134,446.210052 527.749878,447.548523 527.799194,448.709290  z"/>
</svg>
